# xmcd CD database file
#
# Track frame offsets:
#	183
#	10995
#	22613
#	34968
#	47933
#	61070
#	72693
#	83470
#	94443
#	107475
#	117830
#	128755
#	141498
#	152803
#	164675
#	176055
#	187658
#	200308
#	211180
#	223530
#	233865
#	246920
#	263790
#	276815
#
# Disc length: 3849 seconds
#
# Revision: 0
# Processed by: cddbd v1.5PL3 Copyright (c) Steve Scherf et al.
# Submitted via: CDex 1.51
#
DISCID=550f0718
DTITLE=Various Artist - Excello Hits
DYEAR=1900
DGENRE=Blues
TTITLE0=Little Darlin' - Gladiolas
TTITLE1=Rainin' in my heart - Slim Harpo
TTITLE2=Oh Julie - Crescendos
TTITLE3=Prisoners's song - Warren Storm
TTITLE4=Rollin' Stone - Marigolds
TTITLE5=Pleadin' for my love - Larry Birdsong
TTITLE6=Congo Mongo - Guitar Gable
TTITLE7=Hey Baby - Al Ferrier
TTITLE8=Emmett Lee - Carol Fran
TTITLE9=Shoop Shoop - Gladiolas
TTITLE10=I'm a mojo man - Lonesome sundown
TTITLE11=This should go on for ever - King Ka
TTITLE12=I'm a lover not a fighter - Lazy Lester
TTITLE13=Now that she is gone - King Crooners
TTITLE14=Doin' the horse - Skippy Brooks
TTITLE15=Rooster blues - Lightin' Sam
TTITLE16=Please think it over - Roscoe Shelton
TTITLE17=School daze - Little Rico and the King
TTITLE18=Hello Mary lou - Lightin' Slim
TTITLE19=You know me baby - Meloaires
TTITLE20=Baby scratch my back - Slim Harpo
TTITLE21=Snake out of green grass  - Slim HArpo
TTITLE22=Tip on in Pt 1- Slim Harpo
TTITLE23=Tip on in Pt 2 - Slim Harpo
EXTD=
EXTT0=
EXTT1=
EXTT2=
EXTT3=
EXTT4=
EXTT5=
EXTT6=
EXTT7=
EXTT8=
EXTT9=
EXTT10=
EXTT11=
EXTT12=
EXTT13=
EXTT14=
EXTT15=
EXTT16=
EXTT17=
EXTT18=
EXTT19=
EXTT20=
EXTT21=
EXTT22=
EXTT23=
PLAYORDER=
